<svg xmlns="http://www.w3.org/2000/svg" version="1.1" xmlns:xlink="http://www.w3.org/1999/xlink" xmlns:svgjs="http://svgjs.dev/svgjs" width="2000" height="2250" viewBox="0 0 2000 2250"><g transform="matrix(1,0,0,1,3.410605131648481e-13,0)"><svg viewBox="0 0 320 360" data-background-color="#1b4571" preserveAspectRatio="xMidYMid meet" height="2250" width="2000" xmlns="http://www.w3.org/2000/svg" xmlns:xlink="http://www.w3.org/1999/xlink"><g id="tight-bounds" transform="matrix(1,0,0,1,0,0)"><svg viewBox="0 0 320 360" height="360" width="320"><g><svg></svg></g><g><svg viewBox="0 0 320 360" height="360" width="320"><g><path xmlns="http://www.w3.org/2000/svg" d="M20.961 227.22l3.726 4.658-1.863-6.056c-0.466-2.795-3.726 0.466-1.863 1.398M25.153 224.425c1.397 2.329 2.795 4.658 2.795 6.987 0 3.261 2.795 4.658 5.123 5.589-3.261-3.726-5.124-13.974-7.918-12.576M204.017 26.929c7.918 0 15.371-0.932 23.756 0.931 20.495 5.124 37.729 15.371 49.374 29.811l32.606 52.169c1.397 13.042 4.192 27.482 3.726 43.319 3.261 0 2.795-4.658 6.521-5.59-3.726 9.316-5.59 20.961-6.521 34.469-2.329-7.453 0-18.632 0.466-24.687-3.261 5.124-5.124 1.397-5.124-0.932 0.466-3.726-1.397-3.261-2.795-4.658-5.124-4.658-8.384-9.782-12.11-17.7 2.329-6.055 2.795-14.905-4.658-19.563-2.329-1.397-5.124-3.726-6.521-7.453-1.863-5.124-5.124-11.179-4.193-19.097 0.466-2.329-6.987 5.124-11.179 1.863-18.166-12.576-36.332-27.016-58.224-39.127-11.645 0-20.029-4.192-24.221-9.316-3.726-4.658-0.932-10.713 4.658-11.179 3.261 0 6.987-0.932 9.782 0.932 0.466-1.863 2.329-4.192 4.657-4.192M157.904 16.215l0.932 0.466c4.658 0.932 6.987 7.453 12.11 5.124 0 3.261 0.466 6.521-0.466 8.85-1.397 3.726-5.59 3.726-8.85 3.726-31.208-1.863-49.374 11.179-68.471 22.358-5.124 3.261-10.713 5.59-14.906 9.782-20.029 18.632-41.921 35.866-47.045 70.335l-4.192 38.195c-0.466 4.192-5.124 8.384-4.192 13.508l3.26 22.824c-3.261-3.261-5.124 0.932-4.192 2.795 0.466 1.397 2.329 6.055 5.124 1.863 3.726 6.987 7.453 20.495 12.576 26.55 15.837 18.632 36.332 35.4 53.101 52.169 4.192-0.932 7.453-0.932 8.384-3.727 1.397 2.795-1.397 5.59-3.726 6.056 7.453 4.658 15.837 8.85 27.016 9.781 14.44 0.932 27.948 3.261 40.524 6.522 6.521-1.863 13.042-2.795 20.029-3.261 2.329 0 3.726-3.726 6.521-4.658l0.466-4.658c2.795 4.192 2.329-1.397 0.466-4.192 3.261 2.795 4.192 5.124 5.589 6.987 0-1.397 3.726-6.521 3.727-0.466l0.931-6.055c1.397-0.932 1.863 5.124 3.261 0.931 1.397-4.192 4.192-0.932 6.987-2.329-0.932 1.863-0.466 5.59 2.794 3.261l3.727-3.261c2.329 5.59 6.055 3.261 7.918 2.329 20.495-13.042 40.99-28.413 60.553-43.784l-0.466 6.055 2.329-7.453c2.329 2.329 4.192 0.466 5.124-0.931 2.795-4.658 6.521-9.316 12.577-13.508-7.453 20.029-16.303 35.866-27.482 48.908l-4.658 5.59c0 3.261-0.932 7.453-4.658 7.918-1.863 0.466-5.59-0.932-8.384 1.863-1.397 1.863 3.261 5.59-0.466 2.795-3.261-2.329-6.521 0-10.248 0.932-2.795 0.932 1.863 3.726 2.795 5.589 0.932 1.863 1.863 3.726 1.398 6.056l-5.124-5.59c-6.055 3.261-9.782 9.316-14.906 13.974-2.329 1.863-1.397 5.124-1.397 7.918-3.261 0-6.987-0.932-8.85 0.932-1.397 1.863-0.932 4.658-0.932 7.453-4.658-0.466-5.124-7.453-9.315-6.056-4.192 0.932-8.85 1.397-12.577 3.727 2.795 5.59-4.658 2.329-3.726 3.26-6.987-4.192-13.042-7.453-20.495-4.658-15.837-5.124-35.4-2.795-49.84-0.931 0-2.329 0.466-4.658-0.466-5.124-0.932 2.329-3.726 1.397-3.26 1.397-8.85-6.055-17.7-9.782-27.016-14.905-8.384 0.932-16.303-3.261-18.632-5.59-6.521-6.055-13.974-2.795-20.029-4.192-13.042-3.261-17.7-16.769-19.098-26.084-0.932-4.658-4.658-6.521-6.055-6.056-6.055-19.563-15.371-37.263-22.824-55.429-1.863-4.658-1.397-9.316-1.397-14.44 2.329 0.932 4.658 0.466 4.192-2.794-2.329-15.371-7.918-27.016-13.974-38.195 3.261-15.837 3.726-34.469 11.179-48.443 6.521-12.576 18.632-19.098 27.016-29.811 2.795-3.726 2.795-8.85 5.59-12.11 9.316-9.316 18.632-19.098 28.879-27.482 4.658-3.726 10.247 0 17.234-1.397 2.329-8.384 11.645-15.837 20.495-13.508 3.726 0.932 11.179-8.85 13.508-9.782 3.726-1.397 1.863 3.726 1.863 6.987 8.85-6.987 20.961-10.713 32.14-14.906" fill="#000000" fill-rule="nonzero" stroke="none" stroke-width="1" stroke-linecap="butt" stroke-linejoin="miter" stroke-miterlimit="10" stroke-dasharray="" stroke-dashoffset="0" font-family="none" font-weight="none" font-size="none" text-anchor="none" style="mix-blend-mode: normal" data-fill-palette-color="tertiary"></path></g><g transform="matrix(1,0,0,1,64,145.24015002387216)"><svg viewBox="0 0 192 69.5196999522557" height="69.5196999522557" width="192"><g><svg viewBox="0 0 192 69.5196999522557" height="69.5196999522557" width="192"><g><svg viewBox="0 0 192 69.5196999522557" height="69.5196999522557" width="192"><g transform="matrix(1,0,0,1,0,42.01899188023467)"><svg viewBox="0 0 192 27.500708072021038" height="27.500708072021038" width="192"><g id="textblocktransform"><svg viewBox="0 0 192 27.500708072021038" height="27.500708072021038" width="192" id="textblock"><g><svg viewBox="0 0 192 27.500708072021038" height="27.500708072021038" width="192"><g transform="matrix(1,0,0,1,0,0)"><svg width="192" viewBox="0.4000000059604645 -34.650001525878906 247.1300048828125 35.400001525878906" height="27.500708072021038" data-palette-color="#ffffff"><path d="M32.75 0L27.45 0Q26.6-2.25 25.85-4.42 25.1-6.6 24.3-8.85L24.3-8.85 8.6-8.85 5.45 0 0.4 0Q2.4-5.5 4.15-10.18 5.9-14.85 7.58-19.05 9.25-23.25 10.9-27.08 12.55-30.9 14.35-34.65L14.35-34.65 18.8-34.65Q20.6-30.9 22.25-27.08 23.9-23.25 25.58-19.05 27.25-14.85 29-10.18 30.75-5.5 32.75 0L32.75 0ZM10-12.85L22.9-12.85Q21.3-17.2 19.73-21.28 18.15-25.35 16.45-29.1L16.45-29.1Q14.7-25.35 13.13-21.28 11.55-17.2 10-12.85L10-12.85ZM37.15 0L37.15-25.25Q38.75-25.65 41.37-26.1 44-26.55 47.45-26.55L47.45-26.55Q49.95-26.55 51.65-25.88 53.35-25.2 54.5-23.9L54.5-23.9Q54.85-24.15 55.6-24.6 56.35-25.05 57.45-25.48 58.55-25.9 59.9-26.23 61.25-26.55 62.8-26.55L62.8-26.55Q65.8-26.55 67.7-25.68 69.6-24.8 70.67-23.2 71.75-21.6 72.12-19.4 72.5-17.2 72.5-14.6L72.5-14.6 72.5 0 67.85 0 67.85-13.6Q67.85-15.9 67.62-17.55 67.4-19.2 66.77-20.3 66.15-21.4 65.07-21.93 64-22.45 62.3-22.45L62.3-22.45Q59.95-22.45 58.42-21.83 56.9-21.2 56.35-20.7L56.35-20.7Q56.75-19.4 56.95-17.85 57.15-16.3 57.15-14.6L57.15-14.6 57.15 0 52.5 0 52.5-13.6Q52.5-15.9 52.25-17.55 52-19.2 51.37-20.3 50.75-21.4 49.67-21.93 48.6-22.45 46.95-22.45L46.95-22.45Q46.25-22.45 45.45-22.4 44.65-22.35 43.92-22.28 43.2-22.2 42.6-22.1 42-22 41.8-21.95L41.8-21.95 41.8 0 37.15 0ZM80.2 0L80.2-25.25Q81.8-25.65 84.42-26.1 87.05-26.55 90.5-26.55L90.5-26.55Q93-26.55 94.7-25.88 96.4-25.2 97.55-23.9L97.55-23.9Q97.9-24.15 98.65-24.6 99.4-25.05 100.5-25.48 101.6-25.9 102.95-26.23 104.3-26.55 105.85-26.55L105.85-26.55Q108.84-26.55 110.75-25.68 112.65-24.8 113.72-23.2 114.8-21.6 115.17-19.4 115.55-17.2 115.55-14.6L115.55-14.6 115.55 0 110.9 0 110.9-13.6Q110.9-15.9 110.67-17.55 110.45-19.2 109.82-20.3 109.2-21.4 108.12-21.93 107.05-22.45 105.35-22.45L105.35-22.45Q103-22.45 101.47-21.83 99.95-21.2 99.4-20.7L99.4-20.7Q99.8-19.4 100-17.85 100.2-16.3 100.2-14.6L100.2-14.6 100.2 0 95.55 0 95.55-13.6Q95.55-15.9 95.3-17.55 95.05-19.2 94.42-20.3 93.8-21.4 92.72-21.93 91.65-22.45 90-22.45L90-22.45Q89.3-22.45 88.5-22.4 87.7-22.35 86.97-22.28 86.25-22.2 85.65-22.1 85.05-22 84.85-21.95L84.85-21.95 84.85 0 80.2 0ZM132.04-3.35L132.04-3.35Q133.69-3.35 134.97-3.43 136.24-3.5 137.09-3.7L137.09-3.7 137.09-11.45Q136.59-11.7 135.47-11.88 134.34-12.05 132.74-12.05L132.74-12.05Q131.69-12.05 130.52-11.9 129.34-11.75 128.37-11.28 127.39-10.8 126.74-9.98 126.09-9.15 126.09-7.8L126.09-7.8Q126.09-5.3 127.69-4.33 129.29-3.35 132.04-3.35ZM131.64-26.65L131.64-26.65Q134.44-26.65 136.37-25.93 138.29-25.2 139.47-23.88 140.64-22.55 141.14-20.73 141.64-18.9 141.64-16.7L141.64-16.7 141.64-0.45Q141.04-0.35 139.97-0.18 138.89 0 137.54 0.15 136.19 0.3 134.62 0.43 133.04 0.55 131.49 0.55L131.49 0.55Q129.29 0.55 127.44 0.1 125.59-0.35 124.24-1.33 122.89-2.3 122.14-3.9 121.39-5.5 121.39-7.75L121.39-7.75Q121.39-9.9 122.27-11.45 123.14-13 124.64-13.95 126.14-14.9 128.14-15.35 130.14-15.8 132.34-15.8L132.34-15.8Q133.04-15.8 133.79-15.73 134.54-15.65 135.22-15.53 135.89-15.4 136.39-15.3 136.89-15.2 137.09-15.15L137.09-15.15 137.09-16.45Q137.09-17.6 136.84-18.73 136.59-19.85 135.94-20.73 135.29-21.6 134.17-22.13 133.04-22.65 131.24-22.65L131.24-22.65Q128.94-22.65 127.22-22.33 125.49-22 124.64-21.65L124.64-21.65 124.09-25.5Q124.99-25.9 127.09-26.28 129.19-26.65 131.64-26.65ZM166.29-34.65L166.29-11.15Q166.29-8.65 165.77-6.5 165.24-4.35 163.91-2.73 162.59-1.1 160.37-0.18 158.14 0.75 154.79 0.75L154.79 0.75Q153.09 0.75 151.66 0.48 150.24 0.2 149.09-0.23 147.94-0.65 147.09-1.13 146.24-1.6 145.74-2.05L145.74-2.05 147.64-5.9Q148.69-5.15 150.37-4.33 152.04-3.5 154.54-3.5L154.54-3.5Q158.14-3.5 159.79-5.33 161.44-7.15 161.44-11.6L161.44-11.6 161.44-34.65 166.29-34.65ZM183.14-3.35L183.14-3.35Q184.79-3.35 186.06-3.43 187.34-3.5 188.19-3.7L188.19-3.7 188.19-11.45Q187.69-11.7 186.56-11.88 185.44-12.05 183.84-12.05L183.84-12.05Q182.79-12.05 181.61-11.9 180.44-11.75 179.46-11.28 178.49-10.8 177.84-9.98 177.19-9.15 177.19-7.8L177.19-7.8Q177.19-5.3 178.79-4.33 180.39-3.35 183.14-3.35ZM182.74-26.65L182.74-26.65Q185.54-26.65 187.46-25.93 189.39-25.2 190.56-23.88 191.74-22.55 192.24-20.73 192.74-18.9 192.74-16.7L192.74-16.7 192.74-0.45Q192.14-0.35 191.06-0.18 189.99 0 188.64 0.15 187.29 0.3 185.71 0.43 184.14 0.55 182.59 0.55L182.59 0.55Q180.39 0.55 178.54 0.1 176.69-0.35 175.34-1.33 173.99-2.3 173.24-3.9 172.49-5.5 172.49-7.75L172.49-7.75Q172.49-9.9 173.36-11.45 174.24-13 175.74-13.95 177.24-14.9 179.24-15.35 181.24-15.8 183.44-15.8L183.44-15.8Q184.14-15.8 184.89-15.73 185.64-15.65 186.31-15.53 186.99-15.4 187.49-15.3 187.99-15.2 188.19-15.15L188.19-15.15 188.19-16.45Q188.19-17.6 187.94-18.73 187.69-19.85 187.04-20.73 186.39-21.6 185.26-22.13 184.14-22.65 182.34-22.65L182.34-22.65Q180.04-22.65 178.31-22.33 176.59-22 175.74-21.65L175.74-21.65 175.19-25.5Q176.09-25.9 178.19-26.28 180.29-26.65 182.74-26.65ZM209.24-3.35L209.24-3.35Q210.88-3.35 212.16-3.43 213.44-3.5 214.28-3.7L214.28-3.7 214.28-11.45Q213.78-11.7 212.66-11.88 211.53-12.05 209.94-12.05L209.94-12.05Q208.88-12.05 207.71-11.9 206.53-11.75 205.56-11.28 204.59-10.8 203.94-9.98 203.28-9.15 203.28-7.8L203.28-7.8Q203.28-5.3 204.88-4.33 206.49-3.35 209.24-3.35ZM208.84-26.65L208.84-26.65Q211.63-26.65 213.56-25.93 215.49-25.2 216.66-23.88 217.84-22.55 218.34-20.73 218.84-18.9 218.84-16.7L218.84-16.7 218.84-0.45Q218.24-0.35 217.16-0.18 216.09 0 214.74 0.15 213.38 0.3 211.81 0.43 210.24 0.55 208.69 0.55L208.69 0.55Q206.49 0.55 204.63 0.1 202.78-0.35 201.44-1.33 200.09-2.3 199.34-3.9 198.59-5.5 198.59-7.75L198.59-7.75Q198.59-9.9 199.46-11.45 200.34-13 201.84-13.95 203.34-14.9 205.34-15.35 207.34-15.8 209.53-15.8L209.53-15.8Q210.24-15.8 210.99-15.73 211.74-15.65 212.41-15.53 213.09-15.4 213.59-15.3 214.09-15.2 214.28-15.15L214.28-15.15 214.28-16.45Q214.28-17.6 214.03-18.73 213.78-19.85 213.13-20.73 212.49-21.6 211.36-22.13 210.24-22.65 208.44-22.65L208.44-22.65Q206.13-22.65 204.41-22.33 202.69-22 201.84-21.65L201.84-21.65 201.28-25.5Q202.19-25.9 204.28-26.28 206.38-26.65 208.84-26.65ZM226.53 0L226.53-25.25Q228.13-25.65 230.78-26.1 233.43-26.55 236.88-26.55L236.88-26.55Q239.98-26.55 242.03-25.68 244.08-24.8 245.31-23.23 246.53-21.65 247.03-19.45 247.53-17.25 247.53-14.6L247.53-14.6 247.53 0 242.88 0 242.88-13.6Q242.88-16 242.56-17.7 242.23-19.4 241.48-20.45 240.73-21.5 239.48-21.98 238.23-22.45 236.38-22.45L236.38-22.45Q235.63-22.45 234.83-22.4 234.03-22.35 233.31-22.28 232.58-22.2 232.01-22.1 231.43-22 231.18-21.95L231.18-21.95 231.18 0 226.53 0Z" opacity="1" transform="matrix(1,0,0,1,0,0)" fill="#000000" class="wordmark-text-0" data-fill-palette-color="primary" id="text-0"></path></svg></g></svg></g></svg></g></svg></g><g transform="matrix(1,0,0,1,76.9655912053627,0)"><svg viewBox="0 0 38.068817589274616 38.005978555533076" height="38.005978555533076" width="38.068817589274616"><g><svg xmlns="http://www.w3.org/2000/svg" xmlns:xlink="http://www.w3.org/1999/xlink" version="1.1" x="0" y="0" viewBox="0 0.20499849319458008 99.95999908447266 99.79499816894531" enable-background="new 0 0 100 100" xml:space="preserve" height="38.005978555533076" width="38.068817589274616" class="icon-icon-0" data-fill-palette-color="accent" id="icon-0"><g fill="#bf2051" data-fill-palette-color="accent"><circle cx="49.98" cy="50.02" r="8.3" fill="#000000" data-fill-palette-color="accent"></circle><path d="M57.492 7.246c0 3.889-3.152 26.404-7.041 26.404-3.888 0-7.041-22.516-7.041-26.404s3.153-7.041 7.041-7.041C54.34 0.205 57.492 3.357 57.492 7.246z" fill="#000000" data-fill-palette-color="accent"></path><path d="M43.41 92.958c0-3.889 3.153-26.403 7.041-26.403 3.889 0 7.041 22.515 7.041 26.403S54.34 100 50.451 100C46.563 100 43.41 96.847 43.41 92.958z" fill="#000000" data-fill-palette-color="accent"></path><path d="M85.757 24.872c-2.791 2.707-21.142 16.131-23.849 13.341-2.708-2.79 11.248-20.736 14.038-23.445 2.79-2.707 7.249-2.643 9.956 0.148C88.612 17.705 88.546 22.163 85.757 24.872z" fill="#000000" data-fill-palette-color="accent"></path><path d="M14.773 75.181c2.79-2.708 21.14-16.129 23.849-13.342 2.707 2.792-11.249 20.736-14.039 23.445-2.789 2.71-7.247 2.645-9.955-0.146C11.919 82.348 11.985 77.892 14.773 75.181z" fill="#000000" data-fill-palette-color="accent"></path><path d="M74.163 86.315c-2.63-2.866-15.548-21.574-12.685-24.207C64.342 59.479 81.9 73.92 84.53 76.785c2.633 2.861 2.445 7.316-0.416 9.947C81.25 89.364 76.797 89.177 74.163 86.315z" fill="#000000" data-fill-palette-color="accent"></path><path d="M24.717 14.668c2.716 2.781 16.189 21.094 13.407 23.809-2.781 2.717-20.767-11.188-23.483-13.973-2.717-2.779-2.664-7.239 0.12-9.957C17.542 11.832 22.002 11.885 24.717 14.668z" fill="#000000" data-fill-palette-color="accent"></path><path d="M7.041 42.756c3.89 0 26.403 3.154 26.403 7.042 0 3.889-22.514 7.042-26.403 7.042C3.153 56.84 0 53.687 0 49.798 0 45.91 3.153 42.756 7.041 42.756z" fill="#000000" data-fill-palette-color="accent"></path><path d="M92.918 57.059c-3.889 0-26.402-3.15-26.402-7.039s22.514-7.041 26.402-7.041c3.89 0 7.042 3.152 7.042 7.041S96.808 57.059 92.918 57.059z" fill="#000000" data-fill-palette-color="accent"></path></g></svg></g></svg></g><g></g></svg></g></svg></g></svg></g></svg></g><defs></defs></svg><rect width="320" height="360" fill="none" stroke="none" visibility="hidden"></rect></g></svg></g></svg>